<svg width="107.000000" height="31.000000" viewBox="0 0 107 31" fill="none" xmlns="http://www.w3.org/2000/svg" xmlns:xlink="http://www.w3.org/1999/xlink">
	<desc>
			Created with Pixso.
	</desc>
	<defs/>
	<path d="M37.84 -0.25L31.84 -0.25L31.84 29.99L37.84 29.99L37.84 -0.25ZM41.75 4.43C41.75 3.47 42.09 2.66 42.75 1.99C43.45 1.3 44.27 0.95 45.23 0.95C46.19 0.95 47.01 1.3 47.67 1.99C48.37 2.66 48.71 3.47 48.71 4.43C48.71 5.39 48.37 6.22 47.67 6.91C47.01 7.58 46.19 7.91 45.23 7.91C44.27 7.91 43.45 7.58 42.75 6.91C42.09 6.22 41.75 5.39 41.75 4.43ZM74.37 4.43C74.37 3.47 74.7 2.66 75.37 1.99C76.06 1.3 76.89 0.95 77.85 0.95C78.81 0.95 79.62 1.3 80.29 1.99C80.98 2.66 81.33 3.47 81.33 4.43C81.33 5.39 80.98 6.22 80.29 6.91C79.62 7.58 78.81 7.91 77.85 7.91C76.89 7.91 76.06 7.58 75.37 6.91C74.7 6.22 74.37 5.39 74.37 4.43ZM12.2 1.67L17.36 1.67L29.68 29.99L22.64 29.99L20.2 23.99L9.19 23.99L6.83 29.99L-0.05 29.99L12.2 1.67ZM14.6 9.91L11.16 18.71L18.08 18.71L14.6 9.91ZM85.28 16.07Q84.44 17.95 84.44 20.27Q84.44 22.59 85.28 24.47C85.84 25.73 86.6 26.81 87.56 27.71C88.55 28.59 89.7 29.27 91 29.75C92.34 30.23 93.75 30.47 95.24 30.47C96.74 30.47 98.14 30.23 99.44 29.75C100.78 29.27 101.92 28.59 102.88 27.71C103.87 26.81 104.64 25.73 105.2 24.47Q106.04 22.59 106.04 20.27Q106.04 17.95 105.2 16.07C104.64 14.82 103.87 13.75 102.88 12.87Q102.75 12.75 102.62 12.64Q101.27 11.45 99.44 10.79C98.14 10.31 96.74 10.07 95.24 10.07C93.75 10.07 92.34 10.31 91 10.79C89.7 11.27 88.55 11.97 87.56 12.87C86.6 13.75 85.84 14.82 85.28 16.07ZM42.23 10.55L48.23 10.55L48.23 29.99L42.23 29.99L42.23 10.55ZM56.98 10.55L50.5 10.55L58.54 29.99L64.9 29.99L72.58 10.55L66.54 10.55L61.98 23.75L61.9 23.75L56.98 10.55ZM74.85 10.55L80.85 10.55L80.85 29.99L74.85 29.99L74.85 10.55ZM91.68 23.83C90.86 22.93 90.44 21.74 90.44 20.27C90.44 18.81 90.86 17.62 91.68 16.71C92.54 15.81 93.72 15.35 95.24 15.35C96.76 15.35 97.94 15.81 98.76 16.71C99.62 17.62 100.04 18.81 100.04 20.27Q100.04 22.01 99.25 23.22Q99.03 23.55 98.76 23.83C97.94 24.74 96.76 25.19 95.24 25.19C93.72 25.19 92.54 24.74 91.68 23.83Z" fill="#FFFFFF" fill-opacity="1.000000" fill-rule="evenodd"/>
</svg>
