<svg width="81.000000" height="81.000000" viewBox="0 0 81 81" fill="none" xmlns="http://www.w3.org/2000/svg" xmlns:xlink="http://www.w3.org/1999/xlink">
	<desc>
			Created with Pixso.
	</desc>
	<defs>
		<clipPath id="clip1_31">
			<rect width="80.846390" height="80.846390" transform="translate(-0.051636 -0.593018)" fill="white" fill-opacity="0"/>
		</clipPath>
	</defs>
	<rect width="80.846390" height="80.846390" transform="translate(-0.051636 -0.593018)" fill="#FFFFFF" fill-opacity="0"/>
	<g clip-path="url(#clip1_31)">
		<path d="M40.37 -0.6C18.08 -0.6 -0.06 17.54 -0.06 39.83C-0.06 62.11 18.08 80.25 40.37 80.25C62.66 80.25 80.79 62.11 80.79 39.83C80.79 17.54 62.66 -0.6 40.37 -0.6ZM40.37 76.88C19.93 76.88 3.31 60.26 3.31 39.83C3.31 19.39 19.93 2.77 40.37 2.77C60.8 2.77 77.42 19.39 77.42 39.83C77.42 60.26 60.8 76.88 40.37 76.88Z" fill="#FFFFFF" fill-opacity="1.000000" fill-rule="nonzero"/>
		<path d="M56.44 38.41L32.86 23.25C32.34 22.91 31.67 22.9 31.14 23.19C30.6 23.48 30.26 24.05 30.26 24.67L30.26 54.98C30.26 55.6 30.6 56.17 31.14 56.46C31.39 56.6 31.67 56.67 31.95 56.67C32.26 56.67 32.58 56.58 32.86 56.4L56.44 41.24C56.92 40.93 57.21 40.4 57.21 39.83C57.21 39.25 56.92 38.72 56.44 38.41ZM33.63 51.9L33.63 27.75L52.41 39.83L33.63 51.9Z" fill="#FFFFFF" fill-opacity="1.000000" fill-rule="nonzero"/>
	</g>
</svg>
