<svg width="80.000000" height="23.000000" viewBox="0 0 80 23" fill="none" xmlns="http://www.w3.org/2000/svg" xmlns:xlink="http://www.w3.org/1999/xlink">
	<desc>
			Created with Pixso.
	</desc>
	<defs/>
	<path d="M28.38 -0.68L23.88 -0.68L23.88 22L28.38 22L28.38 -0.68ZM31.31 2.83C31.31 2.11 31.56 1.5 32.06 1C32.58 0.47 33.2 0.21 33.92 0.21C34.64 0.21 35.25 0.47 35.75 1C36.27 1.5 36.53 2.11 36.53 2.83C36.53 3.55 36.27 4.17 35.75 4.69C35.25 5.19 34.64 5.44 33.92 5.44C33.2 5.44 32.58 5.19 32.06 4.69C31.56 4.17 31.31 3.55 31.31 2.83ZM55.78 2.83Q55.78 2.25 55.99 1.77Q56.18 1.35 56.53 1C57.05 0.47 57.67 0.21 58.39 0.21C59.11 0.21 59.72 0.47 60.22 1C60.74 1.5 61 2.11 61 2.83C61 3.55 60.74 4.17 60.22 4.69C59.72 5.19 59.11 5.44 58.39 5.44C57.67 5.44 57.05 5.19 56.53 4.69Q56.15 4.29 55.96 3.82Q55.78 3.36 55.78 2.83ZM9.14 0.76L13.02 0.76L22.25 22L16.98 22L15.15 17.5L6.89 17.5L5.12 22L-0.04 22L9.14 0.76ZM10.95 6.94L8.37 13.54L13.56 13.54L10.95 6.94ZM63.96 11.56C63.54 12.5 63.33 13.55 63.33 14.71C63.33 15.87 63.54 16.92 63.96 17.86Q64.43 18.91 65.16 19.75Q65.4 20.03 65.67 20.29C66.41 20.95 67.27 21.46 68.25 21.82C69.25 22.18 70.31 22.36 71.43 22.36C72.55 22.36 73.6 22.18 74.58 21.82C75.58 21.46 76.44 20.95 77.16 20.29C77.9 19.61 78.48 18.79 78.9 17.86Q79.53 16.45 79.53 14.71Q79.53 12.97 78.9 11.56C78.48 10.62 77.9 9.82 77.16 9.16C76.44 8.47 75.58 7.95 74.58 7.6C73.6 7.23 72.55 7.06 71.43 7.06C70.31 7.06 69.25 7.23 68.25 7.6Q67.15 8 66.25 8.68Q65.95 8.9 65.67 9.16C64.95 9.82 64.38 10.62 63.96 11.56ZM31.67 7.42L36.17 7.42L36.17 22L31.67 22L31.67 7.42ZM42.74 7.42L37.88 7.42L43.91 22L48.68 22L54.44 7.42L49.91 7.42L46.49 17.32L46.43 17.32L42.74 7.42ZM56.14 7.42L60.64 7.42L60.64 22L56.14 22L56.14 7.42ZM68.76 17.38C68.14 16.7 67.83 15.81 67.83 14.71C67.83 13.61 68.14 12.72 68.76 12.04Q68.95 11.83 69.17 11.67Q70.06 11.02 71.43 11.02C72.57 11.02 73.45 11.36 74.07 12.04Q74.27 12.25 74.43 12.5Q75.03 13.4 75.03 14.71Q75.03 16.01 74.43 16.92Q74.27 17.16 74.07 17.38C73.45 18.06 72.57 18.4 71.43 18.4Q70.06 18.4 69.17 17.74Q68.95 17.58 68.76 17.38Z" fill="#01996D" fill-opacity="1.000000" fill-rule="evenodd"/>
</svg>
